<?xml version="1.0" encoding="UTF-8" standalone="no"?>
<!DOCTYPE svg PUBLIC "-//W3C//DTD SVG 1.1//EN"
 "http://www.w3.org/Graphics/SVG/1.1/DTD/svg11.dtd">
<!-- Generated by graphviz version 2.40.1 (20161225.0304)
 -->
<!-- Title: state transitions Pages: 1 -->
<svg width="1240pt" height="633pt"
 viewBox="0.00 0.00 1240.00 633.00" xmlns="http://www.w3.org/2000/svg" xmlns:xlink="http://www.w3.org/1999/xlink">
<g id="graph0" class="graph" transform="scale(1 1) rotate(0) translate(4 629)">
<title>state transitions</title>
<polygon fill="#ffffff" stroke="transparent" points="-4,4 -4,-629 1236,-629 1236,4 -4,4"/>
<g id="clust1" class="cluster state regular">
<title>cluster_next_state</title>
<path fill="none" stroke="#000000" stroke-width="2" d="M20,-8C20,-8 1212,-8 1212,-8 1218,-8 1224,-14 1224,-20 1224,-20 1224,-605 1224,-605 1224,-611 1218,-617 1212,-617 1212,-617 20,-617 20,-617 14,-617 8,-611 8,-605 8,-605 8,-20 8,-20 8,-14 14,-8 20,-8"/>
<text text-anchor="start" x="588.8208" y="-598.2" font-family="Helvetica,sans-Serif" font-size="12.00" fill="#000000">next_state</text>
</g>
<!-- next_state -->
<!-- s_IDLE -->
<g id="node2" class="node state regular">
<title>s_IDLE</title>
<polygon fill="#ffffff" fill-opacity="0.003922" stroke="transparent" stroke-width="2" points="651.5,-579 590.5,-579 590.5,-543 651.5,-543 651.5,-579"/>
<text text-anchor="start" x="601.829" y="-557.2" font-family="Helvetica,sans-Serif" font-size="12.00" fill="#000000">s_IDLE</text>
<path fill="none" stroke="#000000" stroke-width="2" d="M602.8333,-544C602.8333,-544 639.1667,-544 639.1667,-544 644.8333,-544 650.5,-549.6667 650.5,-555.3333 650.5,-555.3333 650.5,-566.6667 650.5,-566.6667 650.5,-572.3333 644.8333,-578 639.1667,-578 639.1667,-578 602.8333,-578 602.8333,-578 597.1667,-578 591.5,-572.3333 591.5,-566.6667 591.5,-566.6667 591.5,-555.3333 591.5,-555.3333 591.5,-549.6667 597.1667,-544 602.8333,-544"/>
</g>
<!-- s_READ_PREPARE -->
<g id="node3" class="node state regular">
<title>s_READ_PREPARE</title>
<polygon fill="#ffffff" fill-opacity="0.003922" stroke="transparent" stroke-width="2" points="422,-497 290,-497 290,-461 422,-461 422,-497"/>
<text text-anchor="start" x="300.9938" y="-475.2" font-family="Helvetica,sans-Serif" font-size="12.00" fill="#000000">s_READ_PREPARE</text>
<path fill="none" stroke="#000000" stroke-width="2" d="M302.3333,-462C302.3333,-462 409.6667,-462 409.6667,-462 415.3333,-462 421,-467.6667 421,-473.3333 421,-473.3333 421,-484.6667 421,-484.6667 421,-490.3333 415.3333,-496 409.6667,-496 409.6667,-496 302.3333,-496 302.3333,-496 296.6667,-496 291,-490.3333 291,-484.6667 291,-484.6667 291,-473.3333 291,-473.3333 291,-467.6667 296.6667,-462 302.3333,-462"/>
</g>
<!-- s_IDLE&#45;&gt;s_READ_PREPARE -->
<g id="edge1" class="edge transition">
<title>s_IDLE&#45;&gt;s_READ_PREPARE</title>
<path fill="none" stroke="#000000" d="M590.1236,-557.6697C540.5863,-552.0081 445.7929,-539.7726 414.994,-526 402.9464,-520.6126 391.2415,-512.1828 381.4767,-503.9411"/>
<polygon fill="#000000" stroke="#000000" points="383.5785,-501.1279 373.7656,-497.1332 378.9456,-506.3754 383.5785,-501.1279"/>
<text text-anchor="start" x="414" y="-517" font-family="Helvetica,sans-Serif" font-size="10.00" fill="#000000">read_cpu = &#39;1&#39; and write_cpu =&#39;0&#39; &#160;&#160;</text>
</g>
<!-- s_WRITE_PREPARE -->
<g id="node10" class="node state regular">
<title>s_WRITE_PREPARE</title>
<polygon fill="#ffffff" fill-opacity="0.003922" stroke="transparent" stroke-width="2" points="824.5,-497 687.5,-497 687.5,-461 824.5,-461 824.5,-497"/>
<text text-anchor="start" x="698.8304" y="-475.2" font-family="Helvetica,sans-Serif" font-size="12.00" fill="#000000">s_WRITE_PREPARE</text>
<path fill="none" stroke="#000000" stroke-width="2" d="M699.8333,-462C699.8333,-462 812.1667,-462 812.1667,-462 817.8333,-462 823.5,-467.6667 823.5,-473.3333 823.5,-473.3333 823.5,-484.6667 823.5,-484.6667 823.5,-490.3333 817.8333,-496 812.1667,-496 812.1667,-496 699.8333,-496 699.8333,-496 694.1667,-496 688.5,-490.3333 688.5,-484.6667 688.5,-484.6667 688.5,-473.3333 688.5,-473.3333 688.5,-467.6667 694.1667,-462 699.8333,-462"/>
</g>
<!-- s_IDLE&#45;&gt;s_WRITE_PREPARE -->
<g id="edge2" class="edge transition">
<title>s_IDLE&#45;&gt;s_WRITE_PREPARE</title>
<path fill="none" stroke="#000000" d="M650.9609,-542.8015C670.5362,-530.9113 696.2876,-515.2697 717.3935,-502.4499"/>
<polygon fill="#000000" stroke="#000000" points="719.393,-505.3305 726.1229,-497.1476 715.759,-499.3477 719.393,-505.3305"/>
<text text-anchor="start" x="697" y="-517" font-family="Helvetica,sans-Serif" font-size="10.00" fill="#000000">read_cpu = &#39;0&#39; and write_cpu = &#39;1&#39; &#160;&#160;</text>
</g>
<!-- s_READ_TAG -->
<g id="node4" class="node state regular">
<title>s_READ_TAG</title>
<polygon fill="#ffffff" fill-opacity="0.003922" stroke="transparent" stroke-width="2" points="386.5,-415 287.5,-415 287.5,-379 386.5,-379 386.5,-415"/>
<text text-anchor="start" x="298.8294" y="-393.2" font-family="Helvetica,sans-Serif" font-size="12.00" fill="#000000">s_READ_TAG</text>
<path fill="none" stroke="#000000" stroke-width="2" d="M299.8333,-380C299.8333,-380 374.1667,-380 374.1667,-380 379.8333,-380 385.5,-385.6667 385.5,-391.3333 385.5,-391.3333 385.5,-402.6667 385.5,-402.6667 385.5,-408.3333 379.8333,-414 374.1667,-414 374.1667,-414 299.8333,-414 299.8333,-414 294.1667,-414 288.5,-408.3333 288.5,-402.6667 288.5,-402.6667 288.5,-391.3333 288.5,-391.3333 288.5,-385.6667 294.1667,-380 299.8333,-380"/>
</g>
<!-- s_READ_PREPARE&#45;&gt;s_READ_TAG -->
<g id="edge3" class="edge transition">
<title>s_READ_PREPARE&#45;&gt;s_READ_TAG</title>
<path fill="none" stroke="#000000" d="M351.7833,-460.8015C349.348,-450.2915 346.2336,-436.8503 343.4919,-425.0177"/>
<polygon fill="#000000" stroke="#000000" points="346.8719,-424.0994 341.2049,-415.1476 340.0526,-425.6796 346.8719,-424.0994"/>
<text text-anchor="middle" x="348.3895" y="-435" font-family="Helvetica,sans-Serif" font-size="10.00" fill="#000000"> </text>
</g>
<!-- s_READ_MISS -->
<g id="node5" class="node state regular">
<title>s_READ_MISS</title>
<polygon fill="#ffffff" fill-opacity="0.003922" stroke="transparent" stroke-width="2" points="258,-333 154,-333 154,-297 258,-297 258,-333"/>
<text text-anchor="start" x="164.996" y="-311.2" font-family="Helvetica,sans-Serif" font-size="12.00" fill="#000000">s_READ_MISS</text>
<path fill="none" stroke="#000000" stroke-width="2" d="M166.3333,-298C166.3333,-298 245.6667,-298 245.6667,-298 251.3333,-298 257,-303.6667 257,-309.3333 257,-309.3333 257,-320.6667 257,-320.6667 257,-326.3333 251.3333,-332 245.6667,-332 245.6667,-332 166.3333,-332 166.3333,-332 160.6667,-332 155,-326.3333 155,-320.6667 155,-320.6667 155,-309.3333 155,-309.3333 155,-303.6667 160.6667,-298 166.3333,-298"/>
</g>
<!-- s_READ_TAG&#45;&gt;s_READ_MISS -->
<g id="edge5" class="edge transition">
<title>s_READ_TAG&#45;&gt;s_READ_MISS</title>
<path fill="none" stroke="#000000" d="M287.2127,-393.5694C217.4606,-388.2493 97.6584,-377.0352 84.564,-362 63.2805,-337.5619 103.9109,-325.7554 143.7895,-320.0968"/>
<polygon fill="#000000" stroke="#000000" points="144.4081,-323.546 153.8738,-318.7867 143.5062,-316.6043 144.4081,-323.546"/>
<text text-anchor="start" x="84" y="-353" font-family="Helvetica,sans-Serif" font-size="10.00" fill="#000000">not (validity = &#39;1&#39; and tag_sram_tag /= &quot;ZZZZZZZZZZZ&quot;) &#160;&#160;</text>
</g>
<!-- s_READ_HIT -->
<g id="node8" class="node state regular">
<title>s_READ_HIT</title>
<polygon fill="#ffffff" fill-opacity="0.003922" stroke="transparent" stroke-width="2" points="500,-333 406,-333 406,-297 500,-297 500,-333"/>
<text text-anchor="start" x="416.9994" y="-311.2" font-family="Helvetica,sans-Serif" font-size="12.00" fill="#000000">s_READ_HIT</text>
<path fill="none" stroke="#000000" stroke-width="2" d="M418.3333,-298C418.3333,-298 487.6667,-298 487.6667,-298 493.3333,-298 499,-303.6667 499,-309.3333 499,-309.3333 499,-320.6667 499,-320.6667 499,-326.3333 493.3333,-332 487.6667,-332 487.6667,-332 418.3333,-332 418.3333,-332 412.6667,-332 407,-326.3333 407,-320.6667 407,-320.6667 407,-309.3333 407,-309.3333 407,-303.6667 412.6667,-298 418.3333,-298"/>
</g>
<!-- s_READ_TAG&#45;&gt;s_READ_HIT -->
<g id="edge4" class="edge transition">
<title>s_READ_TAG&#45;&gt;s_READ_HIT</title>
<path fill="none" stroke="#000000" d="M339.6535,-378.909C341.9361,-369.2098 346.1507,-357.7037 353.898,-350 365.3609,-338.6016 380.7587,-330.9008 395.9951,-325.7033"/>
<polygon fill="#000000" stroke="#000000" points="397.4171,-328.9275 405.9413,-322.6357 395.3539,-322.2385 397.4171,-328.9275"/>
<text text-anchor="start" x="353" y="-353" font-family="Helvetica,sans-Serif" font-size="10.00" fill="#000000">validity = &#39;1&#39; and tag_sram_tag /= &quot;ZZZZZZZZZZZ&quot; &#160;&#160;</text>
</g>
<!-- s_UPDATE_DATA_READ -->
<g id="node6" class="node state regular">
<title>s_UPDATE_DATA_READ</title>
<polygon fill="#ffffff" fill-opacity="0.003922" stroke="transparent" stroke-width="2" points="477,-207 315,-207 315,-171 477,-171 477,-207"/>
<text text-anchor="start" x="325.9962" y="-185.2" font-family="Helvetica,sans-Serif" font-size="12.00" fill="#000000">s_UPDATE_DATA_READ</text>
<path fill="none" stroke="#000000" stroke-width="2" d="M327.3333,-172C327.3333,-172 464.6667,-172 464.6667,-172 470.3333,-172 476,-177.6667 476,-183.3333 476,-183.3333 476,-194.6667 476,-194.6667 476,-200.3333 470.3333,-206 464.6667,-206 464.6667,-206 327.3333,-206 327.3333,-206 321.6667,-206 316,-200.3333 316,-194.6667 316,-194.6667 316,-183.3333 316,-183.3333 316,-177.6667 321.6667,-172 327.3333,-172"/>
</g>
<!-- s_READ_MISS&#45;&gt;s_UPDATE_DATA_READ -->
<g id="edge6" class="edge transition">
<title>s_READ_MISS&#45;&gt;s_UPDATE_DATA_READ</title>
<path fill="none" stroke="#000000" d="M233.2224,-296.9473C266.6606,-274.7724 323.4749,-237.0956 360.3629,-212.6331"/>
<polygon fill="#000000" stroke="#000000" points="362.4285,-215.4629 368.8281,-207.0192 358.5598,-209.6291 362.4285,-215.4629"/>
<text text-anchor="start" x="276" y="-271" font-family="Helvetica,sans-Serif" font-size="10.00" fill="#000000">ready_system_memory = &#39;1&#39; &#160;&#160;</text>
</g>
<!-- s_FINISH_UPDATE -->
<g id="node7" class="node state regular">
<title>s_FINISH_UPDATE</title>
<polygon fill="#ffffff" fill-opacity="0.003922" stroke="transparent" stroke-width="2" points="1024.5,-52 895.5,-52 895.5,-16 1024.5,-16 1024.5,-52"/>
<text text-anchor="start" x="906.8324" y="-30.2" font-family="Helvetica,sans-Serif" font-size="12.00" fill="#000000">s_FINISH_UPDATE</text>
<path fill="none" stroke="#000000" stroke-width="2" d="M907.8333,-17C907.8333,-17 1012.1667,-17 1012.1667,-17 1017.8333,-17 1023.5,-22.6667 1023.5,-28.3333 1023.5,-28.3333 1023.5,-39.6667 1023.5,-39.6667 1023.5,-45.3333 1017.8333,-51 1012.1667,-51 1012.1667,-51 907.8333,-51 907.8333,-51 902.1667,-51 896.5,-45.3333 896.5,-39.6667 896.5,-39.6667 896.5,-28.3333 896.5,-28.3333 896.5,-22.6667 902.1667,-17 907.8333,-17"/>
</g>
<!-- s_UPDATE_DATA_READ&#45;&gt;s_FINISH_UPDATE -->
<g id="edge7" class="edge transition">
<title>s_UPDATE_DATA_READ&#45;&gt;s_FINISH_UPDATE</title>
<path fill="none" stroke="#000000" d="M477.0589,-178.3842C514.1594,-171.174 550,-159.7457 550,-142.5 550,-142.5 550,-142.5 550,-75 550,-58.3394 767.1805,-44.2123 885.4089,-37.7561"/>
<polygon fill="#000000" stroke="#000000" points="885.69,-41.2461 895.4865,-37.2113 885.3121,-34.2563 885.69,-41.2461"/>
<text text-anchor="middle" x="551.3895" y="-113" font-family="Helvetica,sans-Serif" font-size="10.00" fill="#000000"> </text>
</g>
<!-- s_FINISH_UPDATE&#45;&gt;s_IDLE -->
<g id="edge8" class="edge transition">
<title>s_FINISH_UPDATE&#45;&gt;s_IDLE</title>
<path fill="none" stroke="#000000" d="M1024.8252,-38.2418C1099.7856,-44.0397 1213,-55.9499 1213,-75 1213,-288.5 1213,-288.5 1213,-288.5 1213,-324.9553 1215,-334.0447 1215,-370.5 1215,-520 1215,-520 1215,-520 1215,-523.4715 796.3045,-550.0137 661.9602,-558.4408"/>
<polygon fill="#000000" stroke="#000000" points="661.4467,-554.9661 651.6852,-559.0848 661.8846,-561.9523 661.4467,-554.9661"/>
<text text-anchor="middle" x="1215.3895" y="-312" font-family="Helvetica,sans-Serif" font-size="10.00" fill="#000000"> </text>
</g>
<!-- s_GET_CACHE_DATA -->
<g id="node9" class="node state regular">
<title>s_GET_CACHE_DATA</title>
<polygon fill="#ffffff" fill-opacity="0.003922" stroke="transparent" stroke-width="2" points="630,-251 484,-251 484,-215 630,-215 630,-251"/>
<text text-anchor="start" x="494.663" y="-229.2" font-family="Helvetica,sans-Serif" font-size="12.00" fill="#000000">s_GET_CACHE_DATA</text>
<path fill="none" stroke="#000000" stroke-width="2" d="M496.3333,-216C496.3333,-216 617.6667,-216 617.6667,-216 623.3333,-216 629,-221.6667 629,-227.3333 629,-227.3333 629,-238.6667 629,-238.6667 629,-244.3333 623.3333,-250 617.6667,-250 617.6667,-250 496.3333,-250 496.3333,-250 490.6667,-250 485,-244.3333 485,-238.6667 485,-238.6667 485,-227.3333 485,-227.3333 485,-221.6667 490.6667,-216 496.3333,-216"/>
</g>
<!-- s_READ_HIT&#45;&gt;s_GET_CACHE_DATA -->
<g id="edge9" class="edge transition">
<title>s_READ_HIT&#45;&gt;s_GET_CACHE_DATA</title>
<path fill="none" stroke="#000000" d="M476.081,-296.8015C490.7573,-285.2298 509.94,-270.105 525.9446,-257.486"/>
<polygon fill="#000000" stroke="#000000" points="528.2979,-260.0876 533.9835,-251.1476 523.9638,-254.5907 528.2979,-260.0876"/>
<text text-anchor="middle" x="512.3895" y="-271" font-family="Helvetica,sans-Serif" font-size="10.00" fill="#000000"> </text>
</g>
<!-- s_GET_CACHE_DATA&#45;&gt;s_IDLE -->
<g id="edge10" class="edge transition">
<title>s_GET_CACHE_DATA&#45;&gt;s_IDLE</title>
<path fill="none" stroke="#000000" d="M581.6881,-251.3195C587.4797,-257.673 592,-265.3898 592,-274 592,-341.5 592,-341.5 592,-341.5 592,-391.3432 576,-402.6568 576,-452.5 576,-520 576,-520 576,-520 576,-526.888 578.9164,-532.9261 583.2644,-538.1006"/>
<polygon fill="#000000" stroke="#000000" points="580.8575,-540.6418 590.486,-545.0625 585.7158,-535.6023 580.8575,-540.6418"/>
<text text-anchor="middle" x="589.3895" y="-394" font-family="Helvetica,sans-Serif" font-size="10.00" fill="#000000"> </text>
</g>
<!-- s_READ_TAG_WRTIE -->
<g id="node11" class="node state regular">
<title>s_READ_TAG_WRTIE</title>
<polygon fill="#ffffff" fill-opacity="0.003922" stroke="transparent" stroke-width="2" points="871,-415 727,-415 727,-379 871,-379 871,-415"/>
<text text-anchor="start" x="737.665" y="-393.2" font-family="Helvetica,sans-Serif" font-size="12.00" fill="#000000">s_READ_TAG_WRTIE</text>
<path fill="none" stroke="#000000" stroke-width="2" d="M739.3333,-380C739.3333,-380 858.6667,-380 858.6667,-380 864.3333,-380 870,-385.6667 870,-391.3333 870,-391.3333 870,-402.6667 870,-402.6667 870,-408.3333 864.3333,-414 858.6667,-414 858.6667,-414 739.3333,-414 739.3333,-414 733.6667,-414 728,-408.3333 728,-402.6667 728,-402.6667 728,-391.3333 728,-391.3333 728,-385.6667 733.6667,-380 739.3333,-380"/>
</g>
<!-- s_WRITE_PREPARE&#45;&gt;s_READ_TAG_WRTIE -->
<g id="edge11" class="edge transition">
<title>s_WRITE_PREPARE&#45;&gt;s_READ_TAG_WRTIE</title>
<path fill="none" stroke="#000000" d="M765.5431,-460.8015C771.1658,-450.0791 778.3883,-436.306 784.6828,-424.3026"/>
<polygon fill="#000000" stroke="#000000" points="787.9391,-425.6293 789.4836,-415.1476 781.7398,-422.3783 787.9391,-425.6293"/>
<text text-anchor="middle" x="781.3895" y="-435" font-family="Helvetica,sans-Serif" font-size="10.00" fill="#000000"> </text>
</g>
<!-- s_WRITE_MISS -->
<g id="node12" class="node state regular">
<title>s_WRITE_MISS</title>
<polygon fill="#ffffff" fill-opacity="0.003922" stroke="transparent" stroke-width="2" points="724.5,-333 615.5,-333 615.5,-297 724.5,-297 724.5,-333"/>
<text text-anchor="start" x="626.8326" y="-311.2" font-family="Helvetica,sans-Serif" font-size="12.00" fill="#000000">s_WRITE_MISS</text>
<path fill="none" stroke="#000000" stroke-width="2" d="M627.8333,-298C627.8333,-298 712.1667,-298 712.1667,-298 717.8333,-298 723.5,-303.6667 723.5,-309.3333 723.5,-309.3333 723.5,-320.6667 723.5,-320.6667 723.5,-326.3333 717.8333,-332 712.1667,-332 712.1667,-332 627.8333,-332 627.8333,-332 622.1667,-332 616.5,-326.3333 616.5,-320.6667 616.5,-320.6667 616.5,-309.3333 616.5,-309.3333 616.5,-303.6667 622.1667,-298 627.8333,-298"/>
</g>
<!-- s_READ_TAG_WRTIE&#45;&gt;s_WRITE_MISS -->
<g id="edge13" class="edge transition">
<title>s_READ_TAG_WRTIE&#45;&gt;s_WRITE_MISS</title>
<path fill="none" stroke="#000000" d="M726.7799,-382.998C704.9587,-377.3493 684.8379,-370.2123 677.564,-362 673.0328,-356.8843 670.6397,-350.1699 669.4761,-343.4233"/>
<polygon fill="#000000" stroke="#000000" points="672.9213,-342.6616 668.5291,-333.0201 665.9501,-343.2962 672.9213,-342.6616"/>
<text text-anchor="start" x="677" y="-353" font-family="Helvetica,sans-Serif" font-size="10.00" fill="#000000">not (validity = &#39;1&#39; and tag_sram_tag /= &quot;ZZZZZZZZZZZ&quot;) &#160;&#160;</text>
</g>
<!-- s_WRITE_HIT -->
<g id="node13" class="node state regular">
<title>s_WRITE_HIT</title>
<polygon fill="#ffffff" fill-opacity="0.003922" stroke="transparent" stroke-width="2" points="1009.5,-333 910.5,-333 910.5,-297 1009.5,-297 1009.5,-333"/>
<text text-anchor="start" x="921.836" y="-311.2" font-family="Helvetica,sans-Serif" font-size="12.00" fill="#000000">s_WRITE_HIT</text>
<path fill="none" stroke="#000000" stroke-width="2" d="M922.8333,-298C922.8333,-298 997.1667,-298 997.1667,-298 1002.8333,-298 1008.5,-303.6667 1008.5,-309.3333 1008.5,-309.3333 1008.5,-320.6667 1008.5,-320.6667 1008.5,-326.3333 1002.8333,-332 997.1667,-332 997.1667,-332 922.8333,-332 922.8333,-332 917.1667,-332 911.5,-326.3333 911.5,-320.6667 911.5,-320.6667 911.5,-309.3333 911.5,-309.3333 911.5,-303.6667 917.1667,-298 922.8333,-298"/>
</g>
<!-- s_READ_TAG_WRTIE&#45;&gt;s_WRITE_HIT -->
<g id="edge12" class="edge transition">
<title>s_READ_TAG_WRTIE&#45;&gt;s_WRITE_HIT</title>
<path fill="none" stroke="#000000" d="M871.1039,-383.6309C897.5502,-377.6317 923.5722,-370.0863 934,-362 940.6321,-356.8571 945.8146,-349.5213 949.7469,-342.1701"/>
<polygon fill="#000000" stroke="#000000" points="952.9655,-343.5509 954.0743,-333.0143 946.6367,-340.5597 952.9655,-343.5509"/>
<text text-anchor="start" x="944" y="-353" font-family="Helvetica,sans-Serif" font-size="10.00" fill="#000000">validity = &#39;1&#39; and tag_sram_tag /= &quot;ZZZZZZZZZZZ&quot; &#160;&#160;</text>
</g>
<!-- s_WRITE_MISS&#45;&gt;s_IDLE -->
<g id="edge14" class="edge transition">
<title>s_WRITE_MISS&#45;&gt;s_IDLE</title>
<path fill="none" stroke="#000000" d="M658.8811,-333.3861C644.4241,-359.085 621,-407.6446 621,-452.5 621,-520 621,-520 621,-520 621,-524.0484 621,-528.3216 621,-532.52"/>
<polygon fill="#000000" stroke="#000000" points="617.5001,-532.6312 621,-542.6312 624.5001,-532.6313 617.5001,-532.6312"/>
<text text-anchor="start" x="622" y="-435" font-family="Helvetica,sans-Serif" font-size="10.00" fill="#000000">ready_system_memory = &#39;1&#39; &#160;&#160;</text>
</g>
<!-- s_GET_MEMORY_DATA -->
<g id="node14" class="node state regular">
<title>s_GET_MEMORY_DATA</title>
<polygon fill="#ffffff" fill-opacity="0.003922" stroke="transparent" stroke-width="2" points="1039,-251 881,-251 881,-215 1039,-215 1039,-251"/>
<text text-anchor="start" x="891.6636" y="-229.2" font-family="Helvetica,sans-Serif" font-size="12.00" fill="#000000">s_GET_MEMORY_DATA</text>
<path fill="none" stroke="#000000" stroke-width="2" d="M893.3333,-216C893.3333,-216 1026.6667,-216 1026.6667,-216 1032.3333,-216 1038,-221.6667 1038,-227.3333 1038,-227.3333 1038,-238.6667 1038,-238.6667 1038,-244.3333 1032.3333,-250 1026.6667,-250 1026.6667,-250 893.3333,-250 893.3333,-250 887.6667,-250 882,-244.3333 882,-238.6667 882,-238.6667 882,-227.3333 882,-227.3333 882,-221.6667 887.6667,-216 893.3333,-216"/>
</g>
<!-- s_WRITE_HIT&#45;&gt;s_GET_MEMORY_DATA -->
<g id="edge15" class="edge transition">
<title>s_WRITE_HIT&#45;&gt;s_GET_MEMORY_DATA</title>
<path fill="none" stroke="#000000" d="M960,-296.8015C960,-286.3976 960,-273.1215 960,-261.3768"/>
<polygon fill="#000000" stroke="#000000" points="963.5001,-261.1476 960,-251.1476 956.5001,-261.1476 963.5001,-261.1476"/>
<text text-anchor="start" x="960" y="-271" font-family="Helvetica,sans-Serif" font-size="10.00" fill="#000000">ready_system_memory = &#39;1&#39; &#160;&#160;</text>
</g>
<!-- s_WRITE_SRAM_DATA -->
<g id="node15" class="node state regular">
<title>s_WRITE_SRAM_DATA</title>
<polygon fill="#ffffff" fill-opacity="0.003922" stroke="transparent" stroke-width="2" points="1036.5,-134 883.5,-134 883.5,-98 1036.5,-98 1036.5,-134"/>
<text text-anchor="start" x="894.8336" y="-112.2" font-family="Helvetica,sans-Serif" font-size="12.00" fill="#000000">s_WRITE_SRAM_DATA</text>
<path fill="none" stroke="#000000" stroke-width="2" d="M895.8333,-99C895.8333,-99 1024.1667,-99 1024.1667,-99 1029.8333,-99 1035.5,-104.6667 1035.5,-110.3333 1035.5,-110.3333 1035.5,-121.6667 1035.5,-121.6667 1035.5,-127.3333 1029.8333,-133 1024.1667,-133 1024.1667,-133 895.8333,-133 895.8333,-133 890.1667,-133 884.5,-127.3333 884.5,-121.6667 884.5,-121.6667 884.5,-110.3333 884.5,-110.3333 884.5,-104.6667 890.1667,-99 895.8333,-99"/>
</g>
<!-- s_GET_MEMORY_DATA&#45;&gt;s_WRITE_SRAM_DATA -->
<g id="edge16" class="edge transition">
<title>s_GET_MEMORY_DATA&#45;&gt;s_WRITE_SRAM_DATA</title>
<path fill="none" stroke="#000000" d="M960,-214.9752C960,-196.1356 960,-166.3112 960,-144.3213"/>
<polygon fill="#000000" stroke="#000000" points="963.5001,-144.2381 960,-134.2381 956.5001,-144.2381 963.5001,-144.2381"/>
<text text-anchor="start" x="960" y="-154" font-family="Helvetica,sans-Serif" font-size="10.00" fill="#000000">ready_system_memory = &#39;1&#39; &#160;&#160;</text>
</g>
<!-- s_WRITE_SRAM_DATA&#45;&gt;s_FINISH_UPDATE -->
<g id="edge17" class="edge transition">
<title>s_WRITE_SRAM_DATA&#45;&gt;s_FINISH_UPDATE</title>
<path fill="none" stroke="#000000" d="M960,-97.8015C960,-87.3976 960,-74.1215 960,-62.3768"/>
<polygon fill="#000000" stroke="#000000" points="963.5001,-62.1476 960,-52.1476 956.5001,-62.1476 963.5001,-62.1476"/>
<text text-anchor="middle" x="961.3895" y="-72" font-family="Helvetica,sans-Serif" font-size="10.00" fill="#000000"> </text>
</g>
</g>
</svg>
